<svg width="25" height="24" viewBox="0 0 25 24" fill="none" xmlns="http://www.w3.org/2000/svg">
<g clip-path="url(#clip0_1_786)">
<path d="M12.5018 5.84738C9.09678 5.84738 6.34878 8.59538 6.34878 12.0004C6.34878 15.4054 9.09678 18.1534 12.5018 18.1534C15.9068 18.1534 18.6548 15.4054 18.6548 12.0004C18.6548 8.59538 15.9068 5.84738 12.5018 5.84738ZM12.5018 15.9994C10.2998 15.9994 8.50278 14.2024 8.50278 12.0004C8.50278 9.79838 10.2998 8.00138 12.5018 8.00138C14.7038 8.00138 16.5008 9.79838 16.5008 12.0004C16.5008 14.2024 14.7038 15.9994 12.5018 15.9994ZM18.9068 4.16138C18.1118 4.16138 17.4698 4.80338 17.4698 5.59838C17.4698 6.39338 18.1118 7.03538 18.9068 7.03538C19.7018 7.03538 20.3438 6.39638 20.3438 5.59838C20.344 5.4096 20.307 5.22263 20.2349 5.04818C20.1627 4.87373 20.0569 4.71522 19.9234 4.58173C19.7899 4.44825 19.6314 4.34241 19.457 4.27028C19.2825 4.19815 19.0956 4.16114 18.9068 4.16138ZM24.4958 12.0004C24.4958 10.3444 24.5108 8.70337 24.4178 7.05038C24.3248 5.13038 23.8868 3.42638 22.4828 2.02238C21.0758 0.615376 19.3748 0.180376 17.4548 0.0873762C15.7988 -0.00562382 14.1578 0.00937622 12.5048 0.00937622C10.8488 0.00937622 9.20778 -0.00562382 7.55479 0.0873762C5.63479 0.180376 3.93079 0.618376 2.52679 2.02238C1.11979 3.42938 0.684786 5.13038 0.591786 7.05038C0.498786 8.70638 0.513786 10.3474 0.513786 12.0004C0.513786 13.6534 0.498786 15.2974 0.591786 16.9504C0.684786 18.8704 1.12279 20.5744 2.52679 21.9784C3.93379 23.3854 5.63479 23.8204 7.55479 23.9134C9.21078 24.0064 10.8518 23.9914 12.5048 23.9914C14.1608 23.9914 15.8018 24.0064 17.4548 23.9134C19.3748 23.8204 21.0788 23.3824 22.4828 21.9784C23.8898 20.5714 24.3248 18.8704 24.4178 16.9504C24.5138 15.2974 24.4958 13.6564 24.4958 12.0004ZM21.8558 19.0744C21.6368 19.6204 21.3728 20.0284 20.9498 20.4484C20.5268 20.8714 20.1218 21.1354 19.5758 21.3544C17.9978 21.9814 14.2508 21.8404 12.5018 21.8404C10.7528 21.8404 7.00279 21.9814 5.42479 21.3574C4.87879 21.1384 4.47079 20.8744 4.05079 20.4514C3.62779 20.0284 3.36379 19.6234 3.14479 19.0774C2.52079 17.4964 2.66179 13.7494 2.66179 12.0004C2.66179 10.2514 2.52079 6.50138 3.14479 4.92338C3.36379 4.37738 3.62779 3.96938 4.05079 3.54938C4.47379 3.12938 4.87879 2.86238 5.42479 2.64338C7.00279 2.01938 10.7528 2.16038 12.5018 2.16038C14.2508 2.16038 18.0008 2.01938 19.5788 2.64338C20.1248 2.86238 20.5328 3.12638 20.9528 3.54938C21.3758 3.97238 21.6398 4.37738 21.8588 4.92338C22.4828 6.50138 22.3418 10.2514 22.3418 12.0004C22.3418 13.7494 22.4828 17.4964 21.8558 19.0744Z" fill="#E61F5A"/>
</g>
<defs>
<clipPath id="clip0_1_786">
<rect width="24" height="24" fill="white" transform="translate(0.5)"/>
</clipPath>
</defs>
</svg>
