<svg width="25" height="20" viewBox="0 0 25 20" fill="none" xmlns="http://www.w3.org/2000/svg">
<g clip-path="url(#clip0_1_788)">
<path d="M24.5004 2.46548C23.6188 2.85141 22.6594 3.12917 21.6712 3.23735C22.6972 2.61879 23.4655 1.64156 23.832 0.489007C22.8692 1.07022 21.8145 1.47778 20.7146 1.6936C20.2549 1.19488 19.6989 0.797581 19.0813 0.526453C18.4637 0.255325 17.7976 0.116179 17.1247 0.117688C14.402 0.117688 12.2123 2.3573 12.2123 5.10564C12.2123 5.49158 12.2584 5.87752 12.3333 6.24884C8.25651 6.03248 4.6205 4.05601 2.20321 1.0299C1.76276 1.79335 1.53194 2.66261 1.53479 3.54727C1.53479 5.27814 2.40201 6.80435 3.72446 7.70195C2.94512 7.6708 2.18403 7.45342 1.50309 7.06749V7.12889C1.50309 9.5527 3.19145 11.5613 5.44163 12.0233C5.01913 12.1347 4.5845 12.1916 4.14799 12.1929C3.82818 12.1929 3.52566 12.1607 3.22026 12.1168C3.84259 14.0933 5.65483 15.5289 7.81281 15.5757C6.12446 16.9177 4.00969 17.7071 1.71342 17.7071C1.30141 17.7071 0.9211 17.6925 0.526382 17.6457C2.70453 19.0637 5.28893 19.8824 8.07212 19.8824C17.1074 19.8824 22.0515 12.2864 22.0515 5.69332C22.0515 5.47696 22.0515 5.2606 22.0371 5.04424C22.9936 4.33377 23.832 3.45371 24.5004 2.46548Z" fill="#21A6DF"/>
</g>
<defs>
<clipPath id="clip0_1_788">
<rect width="24" height="19.7647" fill="white" transform="translate(0.5 0.117676)"/>
</clipPath>
</defs>
</svg>
