<svg width="49" height="48" viewBox="0 0 49 48" fill="none" xmlns="http://www.w3.org/2000/svg">
<g clip-path="url(#clip0_1_542)">
<path d="M44.1502 22.2819C43.5747 22.2861 43.0047 22.3959 42.4674 22.6061L36.7271 17.8214C36.8684 17.2998 36.9689 16.7587 36.9689 16.1883C36.9689 12.81 34.3022 10.0947 30.9844 10.0947C27.6667 10.0947 25 12.81 25 16.1883C25 17.1536 25.2394 18.053 25.6272 18.8622L18.6636 27.2421C18.3849 27.189 18.1022 27.1605 17.8186 27.1568C17.3902 27.1568 16.9856 27.23 16.593 27.3372L10.4578 21.09C10.5655 20.6927 10.6373 20.2808 10.6373 19.8445C10.6373 17.1438 8.50204 14.9696 5.84973 14.9696C3.19742 14.9696 1.06216 17.1438 1.06216 19.8445C1.06216 22.5452 3.19742 24.7194 5.84973 24.7194C6.27822 24.7194 6.68277 24.6463 7.07535 24.539L13.2106 30.7862C13.0955 31.1911 13.0351 31.6102 13.0311 32.0317C13.0311 34.7324 15.1663 36.9066 17.8186 36.9066C20.471 36.9066 22.6062 34.7324 22.6062 32.0317C22.6062 31.454 22.4913 30.9105 22.3118 30.3962L29.2849 22.0065C29.8282 22.1674 30.3908 22.2819 30.9844 22.2819C31.9291 22.2766 32.8589 22.0418 33.6966 21.597L39.4393 26.3817C39.3942 26.6377 39.3686 26.8968 39.3627 27.1568C39.3627 29.8575 41.4979 32.0317 44.1502 32.0317C46.8026 32.0317 48.9378 29.8575 48.9378 27.1568C48.9378 24.4561 46.8026 22.2819 44.1502 22.2819Z" fill="#00A0C1"/>
</g>
<defs>
<clipPath id="clip0_1_542">
<rect width="48" height="48" fill="white" transform="translate(0.5)"/>
</clipPath>
</defs>
</svg>
